{
	"asset": {
		"generator": "Blocks 4.0.1RC0 SVR",
		"version": "1.1",
		"copyright": "Unknown"
	},
	"buffers": {
		"model": {
			"byteLength": 132096,
			"type": "arraybuffer",
			"uri": "model.bin"
		}
	},
	"accessors": {
		"accessor_position_m0-PolyPaper12_-22280": {
			"bufferView": "vec3BufferView",
			"byteOffset": 0,
			"byteStride": 12,
			"componentType": 5126,
			"count": 3048,
			"max": [ 1.74766, 3.817646, 1.888869 ],
			"min": [ -2.469655, -1.654956, -2.924719 ],
			"type": "VEC3"
		 },
		"accessor_normal_m0-PolyPaper12_-22280": {
			"bufferView": "vec3BufferView",
			"byteOffset": 36576,
			"byteStride": 12,
			"componentType": 5126,
			"count": 3048,
			"max": [ 0.9971999, 0.9949405, 0.9974398 ],
			"min": [ -0.9971999, -0.9949405, -0.9974398 ],
			"type": "VEC3"
		 },
		"accessor_color_m0-PolyPaper12_-22280": {
			"bufferView": "vec4BufferView",
			"byteOffset": 0,
			"byteStride": 16,
			"componentType": 5126,
			"count": 3048,
			"max": [ 1, 1, 1, 1 ],
			"min": [ 0, 0.1529412, 0.1333333, 1 ],
			"type": "VEC4"
		 },
		"accessor_indices_0_m0-PolyPaper12_-22280": {
			"bufferView": "ushortBufferView",
			"byteOffset": 0,
			"byteStride": 0,
			"componentType": 5123,
			"count": 4572,
			"max": [ 3047 ],
			"min": [ 0 ],
			"type": "SCALAR"
		 },
		"accessor_position_m1-PolyPaper21_-22286": {
			"bufferView": "vec3BufferView",
			"byteOffset": 73152,
			"byteStride": 12,
			"componentType": 5126,
			"count": 24,
			"max": [ 0.07190899, 0.6093817, -0.8530563 ],
			"min": [ -0.4917031, -0.03092058, -1.542729 ],
			"type": "VEC3"
		 },
		"accessor_normal_m1-PolyPaper21_-22286": {
			"bufferView": "vec3BufferView",
			"byteOffset": 73440,
			"byteStride": 12,
			"componentType": 5126,
			"count": 24,
			"max": [ 0.7736269, 0.8425333, 0.6524106 ],
			"min": [ -0.7736268, -0.8425333, -0.6524106 ],
			"type": "VEC3"
		 },
		"accessor_color_m1-PolyPaper21_-22286": {
			"bufferView": "vec4BufferView",
			"byteOffset": 48768,
			"byteStride": 16,
			"componentType": 5126,
			"count": 24,
			"max": [ 0, 0.5882353, 0.5333334, 1 ],
			"min": [ 0, 0.5882353, 0.5333334, 1 ],
			"type": "VEC4"
		 },
		"accessor_indices_0_m1-PolyPaper21_-22286": {
			"bufferView": "ushortBufferView",
			"byteOffset": 9144,
			"byteStride": 0,
			"componentType": 5123,
			"count": 36,
			"max": [ 23 ],
			"min": [ 0 ],
			"type": "SCALAR"
		 }
	},
	"bufferViews": {
		"ushortBufferView": {
			"buffer": "model",
			"byteLength": 9216,
			"byteOffset": 0,
			"target": 34963
		},
		"vec3BufferView": {
			"buffer": "model",
			"byteLength": 73728,
			"byteOffset": 9216,
			"target": 34962
		},
		"vec4BufferView": {
			"buffer": "model",
			"byteLength": 49152,
			"byteOffset": 82944,
			"target": 34962
		}
	},
	"meshes": {
		"mesh_m0-PolyPaper12_-22280": {
			"name": "mesh_m0-PolyPaper12_-22280",
			"primitives": [
				{
					"attributes": {
						"POSITION": "accessor_position_m0-PolyPaper12_-22280",
						"NORMAL": "accessor_normal_m0-PolyPaper12_-22280",
						"COLOR": "accessor_color_m0-PolyPaper12_-22280"
					},
					"indices": "accessor_indices_0_m0-PolyPaper12_-22280",
					"material": "material_mat12",
					"mode": 4
				}
			]
		},
		"mesh_m1-PolyPaper21_-22286": {
			"name": "mesh_m1-PolyPaper21_-22286",
			"primitives": [
				{
					"attributes": {
						"POSITION": "accessor_position_m1-PolyPaper21_-22286",
						"NORMAL": "accessor_normal_m1-PolyPaper21_-22286",
						"COLOR": "accessor_color_m1-PolyPaper21_-22286"
					},
					"indices": "accessor_indices_0_m1-PolyPaper21_-22286",
					"material": "material_mat21",
					"mode": 4
				}
			]
		}
	},
	"shaders": {
		"vertex_mat12": {
			"type": 35633,
			"uri": "https://vr.google.com/shaders/w/vs.glsl"
		},
		"fragment_mat12": {
			"type": 35632,
			"uri": "https://vr.google.com/shaders/w/fs.glsl"
		},
		"vertex_mat21": {
			"type": 35633,
			"uri": "https://vr.google.com/shaders/w/vs.glsl"
		},
		"fragment_mat21": {
			"type": 35632,
			"uri": "https://vr.google.com/shaders/w/fs.glsl"
		}
	},
	"programs": {
		"program_mat12": {
			"attributes": [
				"a_position",
				"a_normal",
				"a_color"				
			],
			"vertexShader": "vertex_mat12",
			"fragmentShader": "fragment_mat12"
		},
		"program_mat21": {
			"attributes": [
				"a_position",
				"a_normal",
				"a_color"				
			],
			"vertexShader": "vertex_mat21",
			"fragmentShader": "fragment_mat21"
		}
	},
	"techniques": {
		"technique_mat12": {
			"program": "program_mat12",
			"extras": {"gvrss" : "https://vr.google.com/shaders/w/gvrss/paper.json"},
			"parameters": {
				"position": {
					"type": 35665,
					"semantic": "POSITION"
				},
				"normal": {
					"type": 35665,
					"semantic": "NORMAL"
				},
				"color": {
					"type": 35666,
					"semantic": "COLOR"
				},
				"modelViewMatrix": {
					"type": 35676,
					"semantic": "MODELVIEW"
				},
				"projectionMatrix": {
					"type": 35676,
					"semantic": "PROJECTION"
				},
				"normalMatrix": {
					"type": 35675,
					"semantic": "MODELVIEWINVERSETRANSPOSE"
				},
				"color": {
					"type": 35666
				},
				"roughness": {
					"type": 5126
				},
				"metallic": {
					"type": 5126
				},
				"light0Pos": {
					"type": 35666
				},
				"light0Color": {
					"type": 35666
				},
				"light1Pos": {
					"type": 35666
				},
				"light1Color": {
					"type": 35666
				}				
			},
			"attributes": {
				"a_position": "position",
				"a_normal": "normal",
				"a_color": "color"				
			},
			"uniforms": {
				"u_modelViewMatrix": "modelViewMatrix",
				"u_projectionMatrix": "projectionMatrix",
				"u_normalMatrix": "normalMatrix",
				"u_color": "color",
				"u_roughness": "roughness",
				"u_metallic": "metallic",
				"u_light0Pos": "light0Pos",
				"u_light0Color": "light0Color",
				"u_light1Pos": "light1Pos",
				"u_light1Color": "light1Color"				
			},
			"states": {
				"enable": [
					2929,
					2884
				],
				"functions": {
					"cullFace": [1029]
				}
			}
		},
		"technique_mat21": {
			"program": "program_mat21",
			"extras": {"gvrss" : "https://vr.google.com/shaders/w/gvrss/paper.json"},
			"parameters": {
				"position": {
					"type": 35665,
					"semantic": "POSITION"
				},
				"normal": {
					"type": 35665,
					"semantic": "NORMAL"
				},
				"color": {
					"type": 35666,
					"semantic": "COLOR"
				},
				"modelViewMatrix": {
					"type": 35676,
					"semantic": "MODELVIEW"
				},
				"projectionMatrix": {
					"type": 35676,
					"semantic": "PROJECTION"
				},
				"normalMatrix": {
					"type": 35675,
					"semantic": "MODELVIEWINVERSETRANSPOSE"
				},
				"color": {
					"type": 35666
				},
				"roughness": {
					"type": 5126
				},
				"metallic": {
					"type": 5126
				},
				"light0Pos": {
					"type": 35666
				},
				"light0Color": {
					"type": 35666
				},
				"light1Pos": {
					"type": 35666
				},
				"light1Color": {
					"type": 35666
				}				
			},
			"attributes": {
				"a_position": "position",
				"a_normal": "normal",
				"a_color": "color"				
			},
			"uniforms": {
				"u_modelViewMatrix": "modelViewMatrix",
				"u_projectionMatrix": "projectionMatrix",
				"u_normalMatrix": "normalMatrix",
				"u_color": "color",
				"u_roughness": "roughness",
				"u_metallic": "metallic",
				"u_light0Pos": "light0Pos",
				"u_light0Color": "light0Color",
				"u_light1Pos": "light1Pos",
				"u_light1Color": "light1Color"				
			},
			"states": {
				"enable": [
					2929,
					2884
				],
				"functions": {
					"cullFace": [1029]
				}
			}
		}
	},
	"materials": {
		"material_mat12": {
			"technique": "technique_mat12",
			"values": {
				"color": [1, 0.9215686, 0.2313726, 1],
				"roughness": 1,
				"metallic": 0,
				"light0Pos": [-0.02, 4.11, -0.54, 0],
				"light0Color": [1.28, 1.232075, 1.101177, 0],
				"light1Pos": [0.02, -4.11, 0.54, 0],
				"light1Color": [0.2941177, 0.2953672, 0.32, 0]				
			},
			"name": "material_mat12"
		},
		"material_mat21": {
			"technique": "technique_mat21",
			"values": {
				"color": [1, 1, 1, 1],
				"roughness": 1,
				"metallic": 0,
				"light0Pos": [-0.02, 4.11, -0.54, 0],
				"light0Color": [1.28, 1.232075, 1.101177, 0],
				"light1Pos": [0.02, -4.11, 0.54, 0],
				"light1Color": [0.2941177, 0.2953672, 0.32, 0]				
			},
			"name": "material_mat21"
		}
	},
	"nodes": {
		"node_MeshObject-1607276544-PolyPaper12": {
			"name": "node_MeshObject-1607276544-PolyPaper12",
			"meshes": [
				"mesh_m0-PolyPaper12_-22280"
			],
			"matrix": [1, 0, 0, 0, 0, 1, 0, 0, 0, 0, 1, 0, 0, 0, 0, 1]
		},
		"node_MeshObject-1035197440-PolyPaper21": {
			"name": "node_MeshObject-1035197440-PolyPaper21",
			"meshes": [
				"mesh_m1-PolyPaper21_-22286"
			],
			"matrix": [1, 0, 0, 0, 0, 1, 0, 0, 0, 0, 1, 0, 0, 0, 0, 1]
		}
	},
	"scene": "defaultScene",
	"scenes": {
		"defaultScene": {
			"nodes": [
				"node_MeshObject-1607276544-PolyPaper12",
				"node_MeshObject-1035197440-PolyPaper21"
			],
			"extras": {

			}
		}
	}
}