{
	"asset": {
		"generator": "Blocks 3.0.1 3.0.1_SVR_RC0",
		"version": "1.1",
		"copyright": "Unknown"
	},
	"buffers": {
		"model": {
			"byteLength": 33224,
			"type": "arraybuffer",
			"uri": "model.bin"
		}
	},
	"accessors": {
		"accessor_position_m0-PolyPaper11_-85282": {
			"bufferView": "vec3BufferView",
			"byteOffset": 0,
			"byteStride": 12,
			"componentType": 5126,
			"count": 640,
			"max": [ 1.494938, 3.001474, 0.7255154 ],
			"min": [ -0.8875119, 0.2578672, -1.466071 ],
			"type": "VEC3"
		 },
		"accessor_normal_m0-PolyPaper11_-85282": {
			"bufferView": "vec3BufferView",
			"byteOffset": 7680,
			"byteStride": 12,
			"componentType": 5126,
			"count": 640,
			"max": [ 0.9538382, 0.999985, 0.9453692 ],
			"min": [ -0.9514093, -0.999985, -0.9461985 ],
			"type": "VEC3"
		 },
		"accessor_color_m0-PolyPaper11_-85282": {
			"bufferView": "vec4BufferView",
			"byteOffset": 0,
			"byteStride": 16,
			"componentType": 5126,
			"count": 640,
			"max": [ 0, 0.5882353, 0.5333334, 1 ],
			"min": [ 0, 0.5882353, 0.5333334, 1 ],
			"type": "VEC4"
		 },
		"accessor_indices_0_m0-PolyPaper11_-85282": {
			"bufferView": "ushortBufferView",
			"byteOffset": 0,
			"byteStride": 0,
			"componentType": 5123,
			"count": 828,
			"max": [ 639 ],
			"min": [ 0 ],
			"type": "SCALAR"
		 },
		"accessor_position_m2-PolyGlass24_-85294": {
			"bufferView": "vec3BufferView",
			"byteOffset": 15360,
			"byteStride": 12,
			"componentType": 5126,
			"count": 142,
			"max": [ 0.9249467, 1.726205, -0.6834124 ],
			"min": [ -0.9432086, 0.2878933, -1.774766 ],
			"type": "VEC3"
		 },
		"accessor_normal_m2-PolyGlass24_-85294": {
			"bufferView": "vec3BufferView",
			"byteOffset": 17064,
			"byteStride": 12,
			"componentType": 5126,
			"count": 142,
			"max": [ 0.9819388, 0.9994144, 0.9990532 ],
			"min": [ -0.8913854, -0.99221, -0.9600362 ],
			"type": "VEC3"
		 },
		"accessor_color_m2-PolyGlass24_-85294": {
			"bufferView": "vec4BufferView",
			"byteOffset": 10240,
			"byteStride": 16,
			"componentType": 5126,
			"count": 142,
			"max": [ 1, 1, 1, 1 ],
			"min": [ 1, 1, 1, 1 ],
			"type": "VEC4"
		 },
		"accessor_indices_0_m2-PolyGlass24_-85294": {
			"bufferView": "ushortBufferView",
			"byteOffset": 1656,
			"byteStride": 0,
			"componentType": 5123,
			"count": 144,
			"max": [ 141 ],
			"min": [ 0 ],
			"type": "SCALAR"
		 }
	},
	"bufferViews": {
		"ushortBufferView": {
			"buffer": "model",
			"byteLength": 1944,
			"byteOffset": 0,
			"target": 34963
		},
		"vec3BufferView": {
			"buffer": "model",
			"byteLength": 18768,
			"byteOffset": 1944,
			"target": 34962
		},
		"vec4BufferView": {
			"buffer": "model",
			"byteLength": 12512,
			"byteOffset": 20712,
			"target": 34962
		}
	},
	"meshes": {
		"mesh_m0-PolyPaper11_-85282": {
			"name": "mesh_m0-PolyPaper11_-85282",
			"primitives": [
				{
					"attributes": {
						"POSITION": "accessor_position_m0-PolyPaper11_-85282",
						"NORMAL": "accessor_normal_m0-PolyPaper11_-85282",
						"COLOR": "accessor_color_m0-PolyPaper11_-85282"
					},
					"indices": "accessor_indices_0_m0-PolyPaper11_-85282",
					"material": "material_mat11",
					"mode": 4
				}
			]
		},
		"mesh_m2-PolyGlass24_-85294": {
			"name": "mesh_m2-PolyGlass24_-85294",
			"primitives": [
				{
					"attributes": {
						"POSITION": "accessor_position_m2-PolyGlass24_-85294",
						"NORMAL": "accessor_normal_m2-PolyGlass24_-85294",
						"COLOR": "accessor_color_m2-PolyGlass24_-85294"
					},
					"indices": "accessor_indices_0_m2-PolyGlass24_-85294",
					"material": "material_mat24",
					"mode": 4
				}
			]
		}
	},
	"shaders": {
		"vertex_mat11": {
			"type": 35633,
			"uri": "https://vr.google.com/shaders/w/vs.glsl"
		},
		"fragment_mat11": {
			"type": 35632,
			"uri": "https://vr.google.com/shaders/w/fs.glsl"
		},
		"vertex_mat25": {
			"type": 35633,
			"uri": "https://vr.google.com/shaders/w/gemVS.glsl"
		},
		"fragment_mat25": {
			"type": 35632,
			"uri": "https://vr.google.com/shaders/w/gemFS.glsl"
		},
		"vertex_mat24": {
			"type": 35633,
			"uri": "https://vr.google.com/shaders/w/glassVS.glsl"
		},
		"fragment_mat24": {
			"type": 35632,
			"uri": "https://vr.google.com/shaders/w/glassFS.glsl"
		}
	},
	"programs": {
		"program_mat11": {
			"attributes": [
				"a_position",
				"a_normal",
				"a_color"				
			],
			"vertexShader": "vertex_mat11",
			"fragmentShader": "fragment_mat11"
		},
		"program_mat25": {
			"attributes": [
				"a_position",
				"a_normal",
				"a_color"				
			],
			"vertexShader": "vertex_mat25",
			"fragmentShader": "fragment_mat25"
		},
		"program_mat24": {
			"attributes": [
				"a_position",
				"a_normal",
				"a_color"				
			],
			"vertexShader": "vertex_mat24",
			"fragmentShader": "fragment_mat24"
		}
	},
	"techniques": {
		"technique_mat11": {
			"program": "program_mat11",
			"extras": {"gvrss" : "https://vr.google.com/shaders/w/gvrss/paper.json"},
			"parameters": {
				"position": {
					"type": 35665,
					"semantic": "POSITION"
				},
				"normal": {
					"type": 35665,
					"semantic": "NORMAL"
				},
				"color": {
					"type": 35666,
					"semantic": "COLOR"
				},
				"modelViewMatrix": {
					"type": 35676,
					"semantic": "MODELVIEW"
				},
				"projectionMatrix": {
					"type": 35676,
					"semantic": "PROJECTION"
				},
				"normalMatrix": {
					"type": 35675,
					"semantic": "MODELVIEWINVERSETRANSPOSE"
				},
				"color": {
					"type": 35666
				},
				"roughness": {
					"type": 5126
				},
				"metallic": {
					"type": 5126
				},
				"light0Pos": {
					"type": 35666
				},
				"light0Color": {
					"type": 35666
				},
				"light1Pos": {
					"type": 35666
				},
				"light1Color": {
					"type": 35666
				}				
			},
			"attributes": {
				"a_position": "position",
				"a_normal": "normal",
				"a_color": "color"				
			},
			"uniforms": {
				"u_modelViewMatrix": "modelViewMatrix",
				"u_projectionMatrix": "projectionMatrix",
				"u_normalMatrix": "normalMatrix",
				"u_color": "color",
				"u_roughness": "roughness",
				"u_metallic": "metallic",
				"u_light0Pos": "light0Pos",
				"u_light0Color": "light0Color",
				"u_light1Pos": "light1Pos",
				"u_light1Color": "light1Color"				
			},
			"states": {
				"enable": [
					2929,
					2884
				],
				"functions": {
					"cullFace": [1029]
				}
			}
		},
		"technique_mat25": {
			"program": "program_mat25",
			"extras": {"gvrss" : "https://vr.google.com/shaders/w/gvrss/gem.json"},
			"parameters": {
				"position": {
					"type": 35665,
					"semantic": "POSITION"
				},
				"normal": {
					"type": 35665,
					"semantic": "NORMAL"
				},
				"color": {
					"type": 35666,
					"semantic": "COLOR"
				},
				"modelViewMatrix": {
					"type": 35676,
					"semantic": "MODELVIEW"
				},
				"projectionMatrix": {
					"type": 35676,
					"semantic": "PROJECTION"
				},
				"normalMatrix": {
					"type": 35675,
					"semantic": "MODELVIEWINVERSETRANSPOSE"
				},
				"color": {
					"type": 35666
				},
				"roughness": {
					"type": 5126
				},
				"metallic": {
					"type": 5126
				},
				"gem": {
					"type": 35678
				},
				"light0Pos": {
					"type": 35666
				},
				"light0Color": {
					"type": 35666
				},
				"light1Pos": {
					"type": 35666
				},
				"light1Color": {
					"type": 35666
				}				
			},
			"attributes": {
				"a_position": "position",
				"a_normal": "normal",
				"a_color": "color"				
			},
			"uniforms": {
				"u_modelViewMatrix": "modelViewMatrix",
				"u_projectionMatrix": "projectionMatrix",
				"u_normalMatrix": "normalMatrix",
				"u_color": "color",
				"u_roughness": "roughness",
				"u_metallic": "metallic",
				"u_gem": "gem",
				"u_light0Pos": "light0Pos",
				"u_light0Color": "light0Color",
				"u_light1Pos": "light1Pos",
				"u_light1Color": "light1Color"				
			},
			"states": {
				"enable": [
					2929,
					2884
				],
				"functions": {
					"cullFace": [1029]
				}
			}
		},
		"technique_mat24": {
			"program": "program_mat24",
			"extras": {"gvrss" : "https://vr.google.com/shaders/w/gvrss/glass.json"},
			"parameters": {
				"position": {
					"type": 35665,
					"semantic": "POSITION"
				},
				"normal": {
					"type": 35665,
					"semantic": "NORMAL"
				},
				"color": {
					"type": 35666,
					"semantic": "COLOR"
				},
				"modelViewMatrix": {
					"type": 35676,
					"semantic": "MODELVIEW"
				},
				"projectionMatrix": {
					"type": 35676,
					"semantic": "PROJECTION"
				},
				"normalMatrix": {
					"type": 35675,
					"semantic": "MODELVIEWINVERSETRANSPOSE"
				},
				"color": {
					"type": 35666
				},
				"roughness": {
					"type": 5126
				},
				"metallic": {
					"type": 5126
				},
				"light0Pos": {
					"type": 35666
				},
				"light0Color": {
					"type": 35666
				},
				"light1Pos": {
					"type": 35666
				},
				"light1Color": {
					"type": 35666
				}				
			},
			"attributes": {
				"a_position": "position",
				"a_normal": "normal",
				"a_color": "color"				
			},
			"uniforms": {
				"u_modelViewMatrix": "modelViewMatrix",
				"u_projectionMatrix": "projectionMatrix",
				"u_normalMatrix": "normalMatrix",
				"u_color": "color",
				"u_roughness": "roughness",
				"u_metallic": "metallic",
				"u_light0Pos": "light0Pos",
				"u_light0Color": "light0Color",
				"u_light1Pos": "light1Pos",
				"u_light1Color": "light1Color"				
			},
			"states": {
				"enable": [
					2929,
					3042
				],
				"functions": {
					"blendFuncSeparate": [775, 774, 773, 772],
					"depthMask": [true]
				}
			}
		}
	},
	"samplers": {
		"sampler_LINEAR_LINEAR_REPEAT": {
			"magFilter": 9729,
			"minFilter": 9987,
			"wrapS": 10497,
			"wrapT": 10497
		}
	},
	"textures": {
		"texture_mat25_gem": {
			"format": 6408,
			"internalFormat": 6408,
			"sampler": "sampler_LINEAR_LINEAR_REPEAT",
			"source": "image_mat25_gem",
			"target": 3553,
			"type": 5121
		}
	},
	"images": {
		"image_mat25_gem": {
			"uri": "https://vr.google.com/shaders/w/GemRefractions.png"
		}
	},
	"materials": {
		"material_mat11": {
			"technique": "technique_mat11",
			"values": {
				"color": [0, 0.5882353, 0.5333334, 1],
				"roughness": 0.72,
				"metallic": 0,
				"light0Pos": [-0.02, 4.11, -0.54, 0],
				"light0Color": [0.8, 0.7700471, 0.6882353, 0],
				"light1Pos": [0.02, -4.11, 0.54, 0],
				"light1Color": [0.3676471, 0.3692089, 0.4, 0]				
			},
			"name": "material_mat11"
		},
		"material_mat25": {
			"technique": "technique_mat25",
			"values": {
				"color": [1, 1, 1, 1],
				"roughness": 0.001,
				"metallic": 0,
				"gem": "texture_mat25_gem",
				"light0Pos": [-0.02, 4.11, -0.54, 0],
				"light0Color": [0.8, 0.7700471, 0.6882353, 0],
				"light1Pos": [0.02, -4.11, 0.54, 0],
				"light1Color": [0.3676471, 0.3692089, 0.4, 0]				
			},
			"name": "material_mat25"
		},
		"material_mat24": {
			"technique": "technique_mat24",
			"values": {
				"color": [0.8392157, 0.8392157, 0.8392157, 0.2509804],
				"roughness": 0,
				"metallic": 0,
				"light0Pos": [-0.02, 4.11, -0.54, 0],
				"light0Color": [0.8, 0.7700471, 0.6882353, 0],
				"light1Pos": [0.02, -4.11, 0.54, 0],
				"light1Color": [0.3676471, 0.3692089, 0.4, 0]				
			},
			"name": "material_mat24"
		}
	},
	"nodes": {
		"node_MeshObject521651200-PolyPaper11": {
			"name": "node_MeshObject521651200-PolyPaper11",
			"meshes": [
				"mesh_m0-PolyPaper11_-85282"
			],
			"matrix": [1, 0, 0, 0, 0, 1, 0, 0, 0, 0, 1, 0, 0, 0, 0, 1]
		},
		"node_MeshObject-953934848-PolyGlass24": {
			"name": "node_MeshObject-953934848-PolyGlass24",
			"meshes": [
				"mesh_m2-PolyGlass24_-85294"
			],
			"matrix": [1, 0, 0, 0, 0, 1, 0, 0, 0, 0, 1, 0, 0, 0, 0, 1]
		}
	},
	"scene": "defaultScene",
	"scenes": {
		"defaultScene": {
			"nodes": [
				"node_MeshObject521651200-PolyPaper11",
				"node_MeshObject-953934848-PolyGlass24"
			],
			"extras": {

			}
		}
	}
}